<svg xmlns="http://www.w3.org/2000/svg"  viewBox="0 0 100 100" width="100px" height="100px"><path fill="#f05b6c" d="M93.74,45.576c0,1.802-7.241,16.895-7.241,16.895s-9.51,0.724-20.773,1.11	c-11.891,0.402-25.713,0.45-32.326-1.11c-9.848-12.068-12.937-19.132-14.482-26.357c-1.319-6.292-1.901-12.947-0.694-14.411	c3.62-4.425,37.317-12.332,57.012-5.703c1.078,0.37,2.365,1.496,3.765,3.105C85.341,26.492,93.74,44.095,93.74,45.576z"/><path fill="#d53668" d="M93.74,45.576c0,1.802-7.241,16.895-7.241,16.895s-9.51,0.724-20.773,1.11	c-0.161-19.003,2.623-34.161,4.892-41.337c1.223-3.878,4.023-6.034,7.643-3.218l0.74,0.08C85.341,26.492,93.74,44.095,93.74,45.576z"/><path fill="#1f212b" d="M52.872,64.821c-9.214,0-15.815-0.46-19.701-1.377c-0.214-0.051-0.406-0.171-0.545-0.342	C22.549,50.755,19.468,43.467,17.94,36.323c-0.443-2.112-2.545-12.759-0.489-15.256c4.105-5.017,38.085-12.754,58.103-6.014	c1.197,0.41,2.569,1.521,4.201,3.396C85.977,25.698,94.74,43.61,94.74,45.575c0,1.884-5.618,13.739-7.34,17.328	c-0.154,0.322-0.469,0.537-0.825,0.564c-0.096,0.007-9.659,0.73-20.815,1.112C61.016,64.741,56.715,64.821,52.872,64.821z M33.958,61.572c5.384,1.182,16.335,1.527,31.735,1.01c9.554-0.327,17.931-0.905,20.155-1.066c3.348-7.006,6.764-14.704,6.89-15.922	c-0.321-1.914-8.335-18.659-14.496-25.836c-1.708-1.964-2.755-2.613-3.331-2.811c-19.351-6.515-52.721,1.487-55.914,5.389	c-0.652,0.792-0.7,5.946,0.899,13.573C21.394,42.909,24.277,49.661,33.958,61.572z M93.74,45.575h0.01H93.74z M93.74,45.575h0.01	H93.74z"/><path fill="#1f212b" d="M69.411,27.169c-0.039,0-0.078-0.004-0.117-0.014c-0.269-0.064-0.434-0.334-0.37-0.603 c0.188-0.79,0.377-1.532,0.565-2.228c0.072-0.267,0.349-0.424,0.613-0.352c0.267,0.071,0.424,0.347,0.353,0.613 c-0.186,0.686-0.372,1.418-0.558,2.198C69.842,27.015,69.637,27.169,69.411,27.169z"/><path fill="#1f212b" d="M67.921,34.611c-0.027,0-0.055-0.002-0.083-0.007c-0.272-0.046-0.456-0.304-0.411-0.576 c0.282-1.686,0.588-3.315,0.909-4.847c0.057-0.271,0.321-0.451,0.592-0.387c0.271,0.057,0.443,0.321,0.387,0.592 c-0.318,1.518-0.621,3.135-0.901,4.808C68.373,34.438,68.161,34.611,67.921,34.611z"/><path fill="#1f212b" d="M65.726,64.081c-0.274,0-0.498-0.221-0.5-0.496c-0.078-9.263,0.55-18.646,1.818-27.135 c0.041-0.272,0.299-0.461,0.568-0.42c0.273,0.04,0.461,0.295,0.421,0.568c-1.26,8.438-1.886,17.767-1.808,26.979 c0.002,0.275-0.22,0.502-0.496,0.504C65.729,64.081,65.728,64.081,65.726,64.081z"/><path fill="#1f212b" d="M70.618,22.744c-0.05,0-0.101-0.008-0.15-0.023c-0.263-0.083-0.41-0.363-0.327-0.627 c0.787-2.495,2.141-4.156,3.811-4.677c0.996-0.311,2.605-0.352,4.617,1.214c0.218,0.169,0.257,0.483,0.087,0.701 c-0.169,0.219-0.482,0.26-0.702,0.088c-1.342-1.042-2.588-1.396-3.705-1.048c-1.349,0.42-2.469,1.849-3.154,4.022 C71.027,22.608,70.83,22.744,70.618,22.744z"/><path fill="#e9d5c6" d="M93.579,64.836c-0.885,3.588-1.963,6.259-2.446,6.485c-1.802,0.805-3.218-0.998-7.852-3.83	c-2.108,1.641-4.312,3.122-6.597,4.425C63.119,79.768,46.98,81.973,33.207,81.973c-4.216,0-14.207-1.589-14.207-5	c0-3.62,5.968-6.457,10.184-6.457c-0.611-1.207-1.142-2.414-1.609-3.588c-0.628-1.561-1.142-3.073-1.609-4.457	c5.825-4.216,20.113-9.043,24.941-9.848c0.998,0.595,2.414,1.4,3.218,1.802c5.825,0,22.125,2.221,29.768,5.632	c1.416-1.207,7.048-8.045,10.652-10.266C95.558,54.184,94.722,60.25,93.579,64.836z"/><path fill="#f599a0" d="M93.579,64.836c-0.885,3.588-1.963,6.259-2.446,6.485c-1.802,0.805-3.218-0.998-7.852-3.83	c-2.108,1.641-4.312,3.122-6.597,4.425l-3.25-4.811l-4.827,5.825l-8.85-12.068c0,0-11.07,8.448-11.263,8.657	c-0.225,0-1.802-7.498-2.414-10.877c-4.554,1.931-13.709,5.857-18.504,8.287c-0.628-1.561-1.142-3.073-1.609-4.457	c5.825-4.216,20.113-9.043,24.941-9.848c0.998,0.595,2.414,1.4,3.218,1.802c5.825,0,22.125,2.221,29.768,5.632	c0,0,0.805,0,2.221,2.221c1.4-3.83,4.216-4.441,4.216-4.441l0.402,2.414l-0.805,3.637L93.579,64.836z"/><path fill="#1f212b" d="M33.207,82.973c-2.501,0-15.207-1.043-15.207-6c0-3.989,5.33-6.783,9.642-7.351	c-0.345-0.747-0.678-1.525-0.996-2.325c-0.613-1.523-1.12-3.001-1.627-4.507c-0.14-0.415,0.007-0.873,0.361-1.13	c5.907-4.274,20.374-9.191,25.363-10.023c0.235-0.036,0.474,0.007,0.677,0.128c0.894,0.533,2.143,1.246,2.947,1.662	c5.993,0.057,21.388,2.158,29.316,5.451c0.446-0.45,1.08-1.137,1.781-1.896c2.506-2.713,5.938-6.429,8.556-8.042	c0.274-0.169,0.613-0.195,0.91-0.071s0.516,0.384,0.589,0.698c1.256,5.444-0.259,12.66-0.969,15.511	c-0.483,1.956-1.74,6.566-2.995,7.149c-1.804,0.809-3.208-0.153-5.532-1.745c-0.734-0.503-1.622-1.109-2.681-1.775	c-1.98,1.503-4.051,2.873-6.163,4.078C65.504,79.544,50.708,82.973,33.207,82.973z M27.154,62.864	c0.368,1.08,0.826,2.391,1.349,3.69c0.493,1.242,1.021,2.421,1.573,3.509c0.157,0.31,0.142,0.68-0.04,0.976	c-0.182,0.296-0.504,0.477-0.852,0.477c-4.01,0-9.184,2.646-9.184,5.457c0,2.131,8.231,4,13.207,4	c17.144,0,31.603-3.338,42.976-9.922c2.232-1.274,4.412-2.736,6.484-4.349c0.329-0.255,0.782-0.279,1.136-0.064	c1.366,0.835,2.466,1.588,3.351,2.193c1.955,1.339,2.744,1.841,3.438,1.627c0.343-0.503,1.198-2.541,2.018-5.861	c0-0.001,0-0.002,0-0.003c0.61-2.447,1.848-8.269,1.228-13.074c-2.241,1.771-4.983,4.74-6.903,6.819	c-1.111,1.202-1.913,2.071-2.392,2.479c-0.294,0.249-0.705,0.309-1.056,0.151c-7.299-3.258-23.411-5.544-29.36-5.544	c-0.155,0-0.309-0.036-0.447-0.105c-0.742-0.371-1.987-1.073-2.961-1.647C45.708,54.617,32.869,59.07,27.154,62.864z"/><path fill="#1f212b" d="M88.851,67.239c-0.147,0-0.292-0.046-0.421-0.138l0,0c-1.379-0.986-3.601-3.676-2.753-5.089	c0.329-0.548,3.131-4.512,4.62-4.362c0.348,0.046,0.608,0.287,0.715,0.66c0.364,1.276-0.494,7.918-1.722,8.784	C89.152,67.192,89.001,67.239,88.851,67.239z M90.069,58.667c-0.706,0.258-2.728,2.515-3.535,3.859	c-0.343,0.573,0.93,2.556,2.287,3.619C89.471,65.125,90.347,59.989,90.069,58.667z"/><path fill="#09ace3" d="M83,72.973c-2.816-4.425-8.15-9.295-11.175-11.918c-1.126,2.446-1.899,4.007-3.637,6.501	c-0.129,0.177-0.257,0.354-0.386,0.547c-2.14-4.135-3.926-7.096-7.064-10.411c-0.982-1.046-2.092-2.108-3.395-3.266	c9.252,0.805,19.309,3.025,26.55,5.632C84.086,64.885,83.805,67.534,83,72.973z"/><path fill="#09ace3" d="M57.343,54.426c-2.221,1.609-5.632,6.436-6.436,8.045c-0.805-3.025-2.011-7.241-2.414-9.252	c-3.025,0.805-13.066,3.218-22.527,9.252c0.402,1.802,0.805,2.414,0.805,2.414c-2.317,0.676-8.415,3.025-13.178,5.712	C11.323,71.884,9.094,73.669,8,74.973c0.805-5.439,3.887-13.306,9.116-18.745C11.677,55.842,7.632,56.961,2,58.973	c3.637-8.238,13.137-25.417,18.141-27.477c3.411-1.4,16.284,5.423,17.893,6.839c0-6.243,2.414-11.07,6.436-14.289	c0.177,0.821,0.386,1.673,0.611,2.542C47.576,35.825,53.304,47.812,57.343,54.426z"/><path fill="#a9dde2" d="M44.47,26.878c-2.011,4.216-2.607,12.873-1.609,17.893c-2.414-1.416-16.091-6.034-19.309-4.827	c-3.218,1.207-10.652,9.848-12.873,13.87c6.839-2.414,14.675-4.023,17.7-4.216c-1.77,1.593-10.781,12.615-14.787,20.998	C11.323,71.884,9.094,73.669,8,74.973c0.805-5.439,3.887-13.306,9.116-18.745C11.677,55.842,7.632,56.961,2,58.973	c3.637-8.238,13.137-25.417,18.141-27.477c3.411-1.4,16.284,5.423,17.893,6.839c0-6.243,2.414-11.07,6.436-14.289	c0.177,0.821,0.386,1.673,0.611,2.542L44.47,26.878z"/><path fill="#fff" d="M54.125,74.338c2.816-0.603,7.04-2.011,9.654-7.04c2.011-0.402,3.218-0.603,3.218-0.603	c0,2.414-1.609,6.235-1.609,6.235S59.354,74.74,54.125,74.338z"/><path fill="#a9dde2" d="M68.188,67.556c-0.129,0.177-0.257,0.354-0.386,0.547c-2.14-4.135-3.926-7.096-7.064-10.411	l6.259,1.561L68.188,67.556z"/><path fill="#1f212b" d="M83,73.973c-0.337,0-0.658-0.171-0.844-0.463c-1.886-2.964-5.327-6.69-9.989-10.824	c-0.855,1.801-1.664,3.296-3.159,5.441c-0.133,0.184-0.254,0.349-0.375,0.53c-0.196,0.295-0.535,0.45-0.887,0.443	c-0.354-0.02-0.67-0.224-0.833-0.538c-2.14-4.137-3.874-6.984-6.902-10.184c-0.927-0.987-2.016-2.035-3.333-3.206	c-0.322-0.286-0.425-0.747-0.254-1.143s0.582-0.647,1.005-0.601c8.948,0.777,19.218,2.956,26.802,5.687	c0.383,0.138,0.644,0.494,0.66,0.9c0.2,4.992-0.122,7.826-0.902,13.103c-0.061,0.413-0.373,0.744-0.781,0.832	C83.139,73.966,83.069,73.973,83,73.973z M71.825,60.055c0.238,0,0.472,0.085,0.655,0.244c4.32,3.747,7.634,7.114,9.887,10.043	c0.48-3.521,0.666-5.938,0.551-9.569c-6.528-2.278-14.936-4.139-22.709-5.049c0.45,0.44,0.868,0.867,1.258,1.283	c2.813,2.973,4.553,5.633,6.452,9.17c1.287-1.93,1.974-3.317,2.998-5.54c0.131-0.286,0.39-0.493,0.697-0.56	C71.684,60.063,71.754,60.055,71.825,60.055z"/><path fill="#1f212b" d="M8,75.973c-0.138,0-0.278-0.028-0.41-0.088c-0.408-0.184-0.645-0.616-0.579-1.059	c0.752-5.083,3.472-12.248,7.946-17.674c-4.108,0.014-7.657,0.989-12.62,2.762c-0.375,0.137-0.796,0.032-1.069-0.261	c-0.272-0.292-0.344-0.719-0.183-1.085c2.809-6.361,12.857-25.603,18.675-27.997c3.446-1.412,13.352,3.583,17.34,5.963	c0.411-5.488,2.721-10.05,6.745-13.27c0.271-0.216,0.635-0.278,0.96-0.161c0.327,0.116,0.569,0.393,0.643,0.731	c0.174,0.809,0.38,1.647,0.602,2.503c2.413,8.936,8.06,20.875,12.146,27.566c0.272,0.445,0.156,1.025-0.267,1.331	c-2.073,1.502-5.371,6.166-6.128,7.683c-0.186,0.372-0.585,0.589-0.996,0.548c-0.414-0.043-0.758-0.336-0.865-0.738	c-0.221-0.832-0.473-1.755-0.73-2.696c-0.548-2.009-1.112-4.072-1.469-5.581c-3.71,0.976-12.353,3.352-20.632,8.483	c0.275,1.021,0.506,1.416,0.509,1.42c0.159,0.266,0.191,0.6,0.078,0.888c-0.113,0.288-0.348,0.517-0.646,0.604	c-2.167,0.632-8.195,2.931-12.967,5.623c-2.063,1.171-4.25,2.877-5.317,4.147C8.571,75.848,8.289,75.973,8,75.973z M15.011,55.151	c0.706,0,1.428,0.026,2.176,0.08c0.387,0.027,0.723,0.276,0.863,0.638c0.139,0.362,0.056,0.772-0.213,1.053	c-4.127,4.292-6.916,10.241-8.214,15.162c1.063-0.847,2.279-1.677,3.476-2.356c4.275-2.412,9.546-4.521,12.323-5.461	c-0.136-0.401-0.285-0.919-0.432-1.577c-0.092-0.41,0.083-0.835,0.438-1.061c9.056-5.776,18.626-8.28,22.229-9.224l0.579-0.152	c0.266-0.072,0.55-0.028,0.785,0.118c0.234,0.146,0.398,0.382,0.452,0.652c0.284,1.423,0.987,3.995,1.666,6.482	c0.043,0.155,0.085,0.311,0.127,0.466c1.264-1.876,3.153-4.329,4.772-5.771c-4.114-6.926-9.546-18.55-11.923-27.35	c-0.083-0.318-0.163-0.633-0.239-0.944c-3.175,3.114-4.843,7.377-4.843,12.43c0,0.393-0.23,0.749-0.588,0.911	c-0.359,0.161-0.777,0.101-1.073-0.16c-1.784-1.57-14.18-7.764-16.853-6.665c-4.22,1.737-12.465,16.031-16.636,24.841	C7.992,55.891,11.26,55.151,15.011,55.151z"/><path fill="#1f212b" d="M80.094,33.599c-0.056-0.115-0.192-0.169-0.312-0.124c-7.093,2.66-16.304,12.402-24.431,20.998	c-2.947,3.118-5.731,6.062-8.128,8.352c-0.35,0.336-0.864,0.39-1.279,0.13c-4.47-2.772-15.771-12.075-22.175-23.136	c-0.065-0.113-0.207-0.154-0.323-0.102c-0.118,0.056-0.173,0.192-0.128,0.313c1.672,4.493,6.304,11.125,11.27,16.77	c0.095,2.288,0.631,9.239,3.652,13.067c1.13,1.432,2.074,2.153,2.813,2.153c0.137,0,0.267-0.025,0.39-0.074	c0.719-0.291,0.951-1.375,0.862-2.259c-0.151-1.51-0.288-3.385-0.201-5.433c1.346,1.112,2.608,2.008,3.719,2.605	c0.353,0.189,0.736,0.281,1.117,0.281c0.654,0,1.3-0.272,1.766-0.786c0.94-1.037,2.043-2.316,3.281-3.773	c0.49,2.487,1.442,5.262,2.545,6.681c0.704,0.905,1.327,1.132,1.775,1.132c0.182,0,0.335-0.038,0.453-0.082	c0.825-0.312,1.322-1.449,1.235-2.828c-0.316-5.05-0.027-9.471,0.82-12.968C65.564,46.642,73.508,37.917,80,33.922	C80.11,33.855,80.151,33.715,80.094,33.599z"/><g><path fill="#1f212b" d="M48.372,75.468c-2.006,0-3.72-0.206-4.811-0.439c-0.27-0.059-0.442-0.324-0.384-0.594 c0.058-0.271,0.319-0.436,0.594-0.385c3.788,0.812,15.517,1.311,19.561-6.774c0.124-0.247,0.424-0.348,0.671-0.224 c0.247,0.124,0.347,0.424,0.224,0.671C61.083,74.009,53.702,75.468,48.372,75.468z"/><path fill="#1f212b" d="M59.958,68.603c-0.214,0-0.412-0.138-0.478-0.353c-0.081-0.265,0.067-0.544,0.331-0.625 c1.973-0.607,4.303-1.074,7.125-1.427c0.278-0.042,0.523,0.16,0.558,0.434c0.034,0.274-0.16,0.524-0.434,0.559 c-2.763,0.346-5.038,0.8-6.955,1.39C60.056,68.596,60.006,68.603,59.958,68.603z"/><path fill="#1f212b" d="M49.297,75.442c-0.276,0-0.5-0.224-0.5-0.5s0.224-0.5,0.5-0.5c1.751,0,10.637-0.093,15.702-1.901 c0.612-1.694,1.709-5.348,1.72-5.386c0.08-0.265,0.356-0.418,0.623-0.335c0.265,0.079,0.415,0.357,0.335,0.622 c-0.049,0.165-1.218,4.058-1.821,5.664c-0.051,0.135-0.157,0.241-0.292,0.292C60.378,75.343,51.104,75.442,49.297,75.442z"/></g></svg>